<?xml version="1.0" encoding="iso-8859-1"?>
<!-- Generator: Adobe Illustrator 19.0.0, SVG Export Plug-In . SVG Version: 6.00 Build 0)  -->
<svg version="1.1" id="Layer_1" xmlns="http://www.w3.org/2000/svg" xmlns:xlink="http://www.w3.org/1999/xlink" x="0px" y="0px"
	 viewBox="0 0 512 512" style="enable-background:new 0 0 512 512;" xml:space="preserve">
<g>
	<g>
		<g>
			<path d="M96.711,245.261c37.127,0,67.333-30.205,67.333-67.333c0-37.127-30.206-67.333-67.333-67.333
				s-67.333,30.205-67.333,67.333S59.584,245.261,96.711,245.261z M96.711,144.73c18.306,0,33.199,14.892,33.199,33.199
				c0,18.306-14.893,33.199-33.199,33.199s-33.199-14.892-33.199-33.199C63.512,159.624,78.405,144.73,96.711,144.73z"/>
			<path d="M256,245.261c37.127,0,67.333-30.205,67.333-67.333c0-37.127-30.206-67.333-67.333-67.333
				c-37.127,0-67.333,30.205-67.333,67.333S218.873,245.261,256,245.261z M256,144.73c18.306,0,33.199,14.892,33.199,33.199
				c0,18.306-14.893,33.199-33.199,33.199s-33.199-14.892-33.199-33.199C222.801,159.624,237.694,144.73,256,144.73z"/>
			<path d="M415.289,245.261c37.127,0,67.333-30.205,67.333-67.333c0-37.127-30.206-67.333-67.333-67.333
				s-67.333,30.205-67.333,67.333C347.956,215.057,378.162,245.261,415.289,245.261z M415.289,144.73
				c18.306,0,33.199,14.892,33.199,33.199c0,18.306-14.894,33.199-33.199,33.199s-33.199-14.892-33.199-33.199
				C382.09,159.624,396.983,144.73,415.289,144.73z"/>
			<path d="M335.644,298.668c-38.588-55.933-120.761-55.844-159.289,0C122.534,220.657,0,258.922,0,353.444v30.893
				c0,9.425,7.641,17.067,17.067,17.067c9.77,0,469.268,0,477.867,0c9.425,0,17.067-7.641,17.067-17.067v-30.893
				C512,258.922,389.452,220.676,335.644,298.668z M159.289,367.271H34.133v-13.826c0-34.505,28.072-62.578,62.578-62.578
				s62.578,28.072,62.578,62.578V367.271z M318.578,367.271H193.422v-13.826c0-34.505,28.072-62.578,62.578-62.578
				s62.578,28.072,62.578,62.578V367.271z M477.867,367.271H352.711v-13.826c0-34.505,28.072-62.578,62.578-62.578
				c34.505,0,62.578,28.072,62.578,62.578V367.271z"/>
		</g>
	</g>
</g>
<g>
</g>
<g>
</g>
<g>
</g>
<g>
</g>
<g>
</g>
<g>
</g>
<g>
</g>
<g>
</g>
<g>
</g>
<g>
</g>
<g>
</g>
<g>
</g>
<g>
</g>
<g>
</g>
<g>
</g>
</svg>
